inDegrees=yes
name=ik_S51_A10_T01
DataType=double
version=3
OpenSimVersion=4.3-2021-08-27-4bc7ad9
endheader
time	pelvis_tilt	pelvis_list	pelvis_rotation	pelvis_tx	pelvis_ty	pelvis_tz	hip_flexion_r	hip_adduction_r	hip_rotation_r	knee_angle_r	knee_angle_r_beta	ankle_angle_r	subtalar_angle_r	mtp_angle_r	hip_flexion_l	hip_adduction_l	hip_rotation_l	knee_angle_l	knee_angle_l_beta	ankle_angle_l	subtalar_angle_l	mtp_angle_l	lumbar_extension	lumbar_bending	lumbar_rotation	arm_flex_r	arm_add_r	arm_rot_r	elbow_flex_r	pro_sup_r	wrist_flex_r	wrist_dev_r	arm_flex_l	arm_add_l	arm_rot_l	elbow_flex_l	pro_sup_l	wrist_flex_l	wrist_dev_l
4.679999999999988	-1.48732904158423	-0.1328551074321315	33.00539656893507	0	0.9399999999999999	0	43.08298045273838	-9.998965868522589	-9.977001614694263	51.11959188644536	0.8922051906942507	0	0	0	43.08298045273838	-9.998965868522589	-9.977001614694263	51.11959188644536	0.8922051906942507	0	0	0	-0.8830056779380924	-0.7303954748116916	4.215085688023607	27.7579566968154	4.393080067388471	-17.13571385128657	-9.755001905720183	86.43265285013585	0	0	35.59426780493538	6.492455152951482	-13.28914587220306	10.77849951582149	90.89999700337397	0	0
4.699999999999988	-1.308002566964498	-0.0008951641169785059	33.08340145300957	0	0.9399999999999999	0	43.10146336094625	-9.998989504002381	-9.977391496526915	51.15259507249847	0.8927812049545258	0	0	0	43.10146336094625	-9.998989504002381	-9.977391496526915	51.15259507249847	0.8927812049545258	0	0	0	-0.6636716749368025	-0.7078461210722709	4.249182548511879	30.26593387782908	3.411745419368911	-18.75802007622555	-9.891706969064677	86.40386854333852	0	0	38.88867386967657	5.715449634510975	-14.52446058653827	11.73842406665128	90.9159072412656	0	0
4.719999999999987	-1.193620724387877	0.05717144653719127	33.41313872718194	0	0.9399999999999999	0	43.13259470781473	-9.99903017346662	-9.978057837385631	51.20679234292682	0.8937271257690943	0	0	0	43.13259470781473	-9.99903017346662	-9.978057837385631	51.20679234292682	0.8937271257690943	0	0	0	-0.5578958721266551	-0.6542248001727788	3.976422790552876	31.08056025895473	5.211644579943788	-18.56993957206553	-7.05261271218646	82.57946716496943	0	0	46.49425556037979	4.888156865202187	-15.78172821404075	8.961789615394595	90.81659846315391	0	0
4.739999999999987	-0.9879270940888768	0.2003556246178161	33.43840010334914	0	0.9399999999999999	0	43.14322419039767	-9.999044568445258	-9.978289573673948	51.2251889909727	0.8940482078488255	0	0	0	43.14322419039767	-9.999044568445258	-9.978289573673948	51.2251889909727	0.8940482078488255	0	0	0	-0.336421536019558	-0.5859971652424961	4.111145479971855	37.78735087004956	3.076743140893651	-21.29570689325142	-9.81185636243532	81.65831159699799	0	0	50.17115132207951	4.724496015539975	-16.18327968593159	4.690890464217107	91.0609834768788	0	0
4.759999999999986	-0.8179875039664359	0.3251991819784992	33.57486844822996	0	0.9399999999999999	0	43.2292723695238	-9.999149125330765	-9.980057770204468	51.37844513596048	0.8967230321777759	0	0	0	43.2292723695238	-9.999149125330765	-9.980057770204468	51.37844513596048	0.8967230321777759	0	0	0	-0.1608032570782681	-0.5088359689878563	4.140995313926069	37.86374224773576	4.365566125737658	-19.87288389425765	-3.266665660143179	73.82297559331121	0	0	49.62900297833807	5.104052170385311	-14.23147486485461	18.60262282773815	86.72823708416439	0	0
4.779999999999986	-0.9688922108386636	0.5647434189021169	33.17034380717762	0	0.9399999999999999	0	43.35410298407908	-9.999293158444125	-9.982551874895496	51.60070895026532	0.9006022675454368	0	0	0	43.35410298407908	-9.999293158444125	-9.982551874895496	51.60070895026532	0.9006022675454368	0	0	0	0.1741088809281618	-0.7315944781526179	4.702471181544874	39.68825182560929	1.856271146517684	-9.887237247875618	34.77306553285585	32.33044429553208	0	0	53.4529081736101	5.228739835895696	-14.31684845658693	14.5431889374571	86.59286718936568	0	0
4.799999999999986	0.3951062454626321	0.1123641231283378	33.50042522085336	0	0.9399999999999999	0	43.44262051394516	-9.999387791853296	-9.984254735967706	51.75590778464958	0.9033109982006995	0	0	0	43.44262051394516	-9.999387791853296	-9.984254735967706	51.75590778464958	0.9033109982006995	0	0	0	-0.5379503768282603	0.4346661555340286	4.592949489115012	46.13812633248705	-7.006276753570295	-3.077878786304149	70.83426691321456	-9.70667485382563	0	0	57.02873714901524	5.15250370929239	-11.93310420518669	27.84120608469159	79.14742499842551	0	0
